<svg width="128" height="128" viewBox="0 0 128 128" fill="none" xmlns="http://www.w3.org/2000/svg">
<rect width="128" height="128" fill="#1D1427"/>
<path d="M12.1714 25.4419V21.5264H15.3135C16.7207 21.5264 17.8057 21.1396 18.5684 20.3662C19.3418 19.5928 19.7285 18.5132 19.7285 17.1274C19.7285 15.8169 19.3418 14.8071 18.5684 14.0981C17.8057 13.3892 16.7207 13.0347 15.3135 13.0347H12.2358V9.11914H15.3135C18.1816 9.11914 20.3999 9.7959 21.9683 11.1494C23.5366 12.4922 24.3208 14.3936 24.3208 16.8535C24.3208 19.582 23.5366 21.6982 21.9683 23.2021C20.3999 24.6953 18.1816 25.4419 15.3135 25.4419H12.1714ZM8.3042 32V9.11914H12.5581V32H8.3042ZM32.5225 32.3223C30.9004 32.3223 29.6436 31.7905 28.752 30.7271C27.8604 29.6528 27.4146 28.1436 27.4146 26.1992V14.9199H31.7812V25.1196C31.7812 26.0972 32.0015 26.8545 32.4419 27.3916C32.8931 27.918 33.5107 28.1812 34.2949 28.1812C35.3154 28.1812 36.0835 27.7891 36.5991 27.0049C37.1255 26.21 37.3887 24.8833 37.3887 23.0249L38.2588 28.7129H36.9375C36.6689 29.873 36.1479 30.7646 35.3745 31.3877C34.6011 32.0107 33.6504 32.3223 32.5225 32.3223ZM37.6787 32.1611L37.3887 28.0684V25.0713H41.7554V28.1006L44.1079 28.4551V32L37.6787 32.1611ZM37.3887 27.166V14.9199H41.7554V26.1992L37.3887 27.166ZM53.647 24.6523L52.6479 18.771H54.1143C54.2861 15.9888 55.7417 14.5977 58.481 14.5977C60.103 14.5977 61.3438 15.1938 62.2031 16.3862C63.0732 17.5786 63.5083 19.2974 63.5083 21.5425H59.1577C59.1577 20.5327 58.9697 19.8076 58.5938 19.3672C58.2285 18.9268 57.6377 18.7065 56.8213 18.7065C55.7578 18.7065 54.9629 19.2222 54.4365 20.2534C53.9102 21.2847 53.647 22.751 53.647 24.6523ZM45.687 32V28.2617H57.6431V32H45.687ZM49.2964 32V14.9199H53.0024L53.647 19.8184V32H49.2964ZM46.3315 18.6582V14.9199H52.7769L53.0991 18.6582H46.3315ZM66.4409 39.4121V14.9199H70.4854L70.8076 18.5293V39.4121H66.4409ZM75.3677 32.3223C74.1753 32.3223 73.2192 32.0376 72.4995 31.4683C71.7798 30.8989 71.334 30.0449 71.1621 28.9062H69.6475L70.8076 23.4761C70.8076 25.1304 71.0547 26.3335 71.5488 27.0854C72.043 27.8374 72.9077 28.2134 74.1431 28.2134C75.2817 28.2134 76.1411 27.8159 76.7212 27.021C77.312 26.2261 77.6074 25.0444 77.6074 23.4761C77.6074 21.9614 77.3066 20.7905 76.7051 19.9634C76.1035 19.1255 75.2495 18.7065 74.1431 18.7065C73.0366 18.7065 72.2041 19.0879 71.6455 19.8506C71.0869 20.6133 70.8076 21.8218 70.8076 23.4761L69.8086 18.0137H71.0654C71.2695 16.8643 71.7046 16.0103 72.3706 15.4517C73.0474 14.8823 74.0356 14.5977 75.3354 14.5977C77.4731 14.5977 79.1274 15.3711 80.2983 16.918C81.48 18.4648 82.0708 20.6509 82.0708 23.4761C82.0708 26.3228 81.48 28.5088 80.2983 30.0342C79.1274 31.5596 77.4839 32.3223 75.3677 32.3223ZM95.5576 32.3223C93.4092 32.3223 91.8569 31.7314 90.9009 30.5498C89.9556 29.3682 89.4829 27.4775 89.4829 24.8779V7.83008H93.8335V24.7168C93.8335 25.4258 93.9087 26.0059 94.0591 26.457C94.2095 26.9082 94.4995 27.2412 94.9292 27.4561C95.3589 27.6709 95.998 27.7783 96.8467 27.7783C97.792 27.7783 98.9844 27.5742 100.424 27.166L100.923 31.6455C100.01 31.8818 99.1294 32.0537 98.2808 32.1611C97.4321 32.2686 96.5244 32.3223 95.5576 32.3223ZM84.6489 11.8423V7.83008H89.7729V11.8423H84.6489ZM113.701 32.3223C110.747 32.3223 108.464 31.5596 106.853 30.0342C105.242 28.498 104.436 26.2959 104.436 23.4277C104.436 20.6348 105.118 18.4648 106.482 16.918C107.857 15.3711 109.791 14.5977 112.283 14.5977C114.722 14.5977 116.607 15.312 117.939 16.7407C119.271 18.1694 119.937 20.248 119.937 22.9766C119.937 23.75 119.905 24.4858 119.84 25.1841H107.304V22.1548H115.651C115.651 21.0054 115.355 20.1245 114.765 19.5122C114.185 18.8999 113.368 18.5938 112.315 18.5938C111.177 18.5938 110.291 19.002 109.657 19.8184C109.034 20.624 108.722 21.7734 108.722 23.2666C108.722 24.8779 109.184 26.1025 110.108 26.9404C111.042 27.7783 112.369 28.1973 114.088 28.1973C114.861 28.1973 115.624 28.1597 116.376 28.0845C117.128 27.9985 117.896 27.8857 118.68 27.7461L119.099 31.8711C118.003 32.0645 117.004 32.188 116.102 32.2417C115.2 32.2954 114.399 32.3223 113.701 32.3223ZM12.0103 70V65.9395H13.7988C15.8936 65.9395 17.4619 65.3433 18.5039 64.1509C19.5566 62.9478 20.083 61.1914 20.083 58.8818C20.083 56.3467 19.5566 54.4292 18.5039 53.1294C17.4619 51.8296 15.8936 51.1797 13.7988 51.1797H12.0747L11.688 47.1191H13.7988C20.9639 47.1191 24.5464 51.04 24.5464 58.8818C24.5464 66.2939 20.9639 70 13.7988 70H12.0103ZM7.98193 70V47.1191H12.2358V70H7.98193ZM38.146 70.1611L37.7754 65.1016L37.7109 62.8779V59.5425C37.7109 58.6294 37.3188 57.9634 36.5347 57.5444C35.7612 57.1147 34.6064 56.8784 33.0703 56.8354L28.7036 56.7227L29.0259 52.7588L32.748 52.8071C35.8418 52.8501 38.1406 53.4624 39.6445 54.644C41.1484 55.8149 41.9004 57.5283 41.9004 59.7842V66.1006L44.269 66.4551V70L38.146 70.1611ZM32.3613 70.3223C30.5459 70.3223 29.1333 69.8765 28.1235 68.9849C27.1138 68.0933 26.6089 66.8257 26.6089 65.1821C26.6089 63.27 27.2695 61.8037 28.5908 60.7832C29.9121 59.7627 31.7866 59.2524 34.2144 59.2524C35.1489 59.2524 35.9546 59.3008 36.6313 59.3975C37.3188 59.4941 38.0117 59.6445 38.71 59.8486L38.001 63.2485C37.3135 63.0874 36.6958 62.9961 36.1479 62.9746C35.6001 62.9424 35.0254 62.9263 34.4238 62.9263C32.168 62.9263 31.04 63.5708 31.04 64.8599C31.04 65.4399 31.2441 65.8857 31.6523 66.1973C32.0605 66.498 32.6567 66.6484 33.4409 66.6484C34.3862 66.6484 35.1758 66.4712 35.8096 66.1167C36.4434 65.7622 36.916 65.311 37.2275 64.7632C37.5498 64.2153 37.7109 63.6514 37.7109 63.0713V62.0078L38.3232 66.3906H36.9536L37.5176 65.875C37.4854 66.8633 37.2598 67.6904 36.8408 68.3564C36.4219 69.0117 35.8311 69.5059 35.0684 69.8389C34.3164 70.1611 33.4141 70.3223 32.3613 70.3223ZM53.647 62.6523L52.6479 56.771H54.1143C54.2861 53.9888 55.7417 52.5977 58.481 52.5977C60.103 52.5977 61.3438 53.1938 62.2031 54.3862C63.0732 55.5786 63.5083 57.2974 63.5083 59.5425H59.1577C59.1577 58.5327 58.9697 57.8076 58.5938 57.3672C58.2285 56.9268 57.6377 56.7065 56.8213 56.7065C55.7578 56.7065 54.9629 57.2222 54.4365 58.2534C53.9102 59.2847 53.647 60.751 53.647 62.6523ZM45.687 70V66.2617H57.6431V70H45.687ZM49.2964 70V52.9199H53.0024L53.647 57.8184V70H49.2964ZM46.3315 56.6582V52.9199H52.7769L53.0991 56.6582H46.3315ZM69.0029 63.9253V59.7842H70.9365C72.2148 59.7842 73.2622 59.564 74.0786 59.1235C74.9058 58.6724 75.5557 57.9473 76.0283 56.9482C76.501 55.9385 76.8447 54.5957 77.0596 52.9199H81.5552C81.0933 56.6152 80.0513 59.376 78.4292 61.2021C76.8071 63.0176 74.5781 63.9253 71.7422 63.9253H69.0029ZM66.312 70V45.8301H70.6787V70H66.312ZM77.4785 70L73.2891 61.6855L77.1885 60.3643L82.6509 70H77.4785Z" fill="white"/>
<path d="M84.9551 74.0283V70H101.068V74.0283H84.9551Z" fill="#D37E13"/>
<rect y="118" width="21.3333" height="10" fill="#D37E13"/>
<rect x="21.3333" y="118" width="21.3333" height="10" fill="#692AB1"/>
<rect x="42.6667" y="118" width="21.3333" height="10" fill="#372051"/>
<rect x="64" y="118" width="21.3333" height="10" fill="#2D1D3F"/>
<rect x="85.3333" y="118" width="21.3333" height="10" fill="#21172C"/>
<rect x="106.667" y="118" width="21.3333" height="10" fill="#140E1B"/>
</svg>
