<svg width="128" height="128" viewBox="0 0 128 128" fill="none" xmlns="http://www.w3.org/2000/svg">
<rect width="128" height="128" fill="#1D1427"/>
<rect x="1" y="1" width="126" height="126" stroke="#692AB1" stroke-opacity="0.11" stroke-width="2"/>
<path d="M13.0391 23.5547V20.7715H16.4668C18.0684 20.7715 19.2793 20.376 20.0996 19.585C20.9199 18.7842 21.3301 17.6172 21.3301 16.084C21.3301 14.7363 20.9199 13.7158 20.0996 13.0225C19.2793 12.3291 18.0684 11.9824 16.4668 11.9824H13.0977V9.19922H16.4668C19.0742 9.19922 21.0469 9.78027 22.3848 10.9424C23.7324 12.1045 24.4062 13.8184 24.4062 16.084C24.4062 18.5352 23.7324 20.3955 22.3848 21.665C21.0469 22.9248 19.0742 23.5547 16.4668 23.5547H13.0391ZM10.3438 30V9.19922H13.3906V30H10.3438ZM32.8438 30.293C31.2129 30.293 29.9482 29.8096 29.0498 28.8428C28.1611 27.8662 27.7168 26.4941 27.7168 24.7266V14.4727H30.8223V24.7266C30.8223 25.6152 31.0762 26.3037 31.584 26.792C32.0918 27.2705 32.8047 27.5098 33.7227 27.5098C34.8555 27.5098 35.71 27.1533 36.2861 26.4404C36.8623 25.7178 37.1504 24.5117 37.1504 22.8223L37.9414 27.0117H36.916C36.6719 28.0664 36.1934 28.877 35.4805 29.4434C34.7676 30.0098 33.8887 30.293 32.8438 30.293ZM37.4141 30.1465L37.1504 26.4258V23.7012H40.2559V27.1875L42.3945 27.5098V30L37.4141 30.1465ZM37.1504 25.6055V14.4727H40.2559V24.7266L37.1504 25.6055ZM50.8906 23.3203L49.9824 18.457H51.1836C51.3594 15.6055 52.7852 14.1797 55.4609 14.1797C57.0625 14.1797 58.2246 14.6387 58.9473 15.5566C59.6699 16.4746 60.0312 17.959 60.0312 20.0098H56.9551C56.9551 18.877 56.7842 18.0615 56.4424 17.5635C56.1104 17.0654 55.5684 16.8164 54.8164 16.8164C53.498 16.8164 52.5117 17.3828 51.8574 18.5156C51.2129 19.6387 50.8906 21.2402 50.8906 23.3203ZM44.3281 30V27.2754H54.6992V30H44.3281ZM47.7852 30V14.4727H50.3047L50.8906 18.9258V30H47.7852ZM44.9141 17.1973V14.4727H50.0996L50.3926 17.1973H44.9141ZM63.1953 36.7383V14.4727H66.0078L66.3008 17.7539V36.7383H63.1953ZM70.71 30.293C69.5186 30.293 68.5566 30.0195 67.8242 29.4727C67.1016 28.9258 66.6914 28.1641 66.5938 27.1875H65.2461L66.3008 22.7637C66.3008 24.3652 66.6133 25.5811 67.2383 26.4111C67.873 27.2412 68.8008 27.6562 70.0215 27.6562C71.2715 27.6562 72.2188 27.2119 72.8633 26.3232C73.5078 25.4346 73.8301 24.1211 73.8301 22.3828C73.8301 20.5469 73.5078 19.1602 72.8633 18.2227C72.2188 17.2852 71.2715 16.8164 70.0215 16.8164C68.8008 16.8164 67.873 17.2314 67.2383 18.0615C66.6133 18.8916 66.3008 20.1074 66.3008 21.709L65.2461 17.2852H66.4473C66.584 16.3086 67.0234 15.5469 67.7656 15C68.5176 14.4531 69.499 14.1797 70.71 14.1797C72.751 14.1797 74.2939 14.873 75.3389 16.2598C76.3838 17.6465 76.9062 19.6875 76.9062 22.3828C76.9062 24.9805 76.3838 26.9482 75.3389 28.2861C74.2939 29.624 72.751 30.293 70.71 30.293ZM89.416 30.293C87.6191 30.293 86.3203 29.8047 85.5195 28.8281C84.7188 27.8516 84.3184 26.2891 84.3184 24.1406V8.02734H87.4238V23.9941C87.4238 24.8145 87.502 25.4834 87.6582 26.001C87.8145 26.5186 88.1172 26.8994 88.5664 27.1436C89.0254 27.3877 89.6992 27.5098 90.5879 27.5098C91.3984 27.5098 92.4336 27.3242 93.6934 26.9531L94.0449 29.6777C93.2539 29.8926 92.4922 30.0488 91.7598 30.1465C91.0371 30.2441 90.2559 30.293 89.416 30.293ZM79.748 10.752V8.02734H84.582V10.752H79.748ZM106.027 30.293C103.381 30.293 101.335 29.5996 99.8896 28.2129C98.4541 26.8164 97.7363 24.8145 97.7363 22.207C97.7363 19.668 98.3467 17.6953 99.5674 16.2891C100.788 14.8828 102.512 14.1797 104.738 14.1797C106.838 14.1797 108.459 14.8145 109.602 16.084C110.754 17.3535 111.33 19.1992 111.33 21.6211C111.33 22.334 111.301 22.998 111.242 23.6133H100.344V21.2402H108.518C108.518 19.8438 108.186 18.7744 107.521 18.0322C106.857 17.2803 105.939 16.9043 104.768 16.9043C103.449 16.9043 102.424 17.3535 101.691 18.252C100.969 19.1504 100.607 20.4199 100.607 22.0605C100.607 23.8574 101.105 25.2246 102.102 26.1621C103.107 27.0996 104.533 27.5684 106.379 27.5684C107.023 27.5684 107.658 27.5342 108.283 27.4658C108.908 27.3877 109.543 27.2852 110.188 27.1582L110.568 29.8828C109.65 30.0586 108.811 30.1709 108.049 30.2197C107.287 30.2686 106.613 30.293 106.027 30.293ZM12.8926 65V62.2168H15.0898C17.2285 62.2168 18.835 61.6064 19.9092 60.3857C20.9932 59.165 21.5352 57.334 21.5352 54.8926C21.5352 52.2461 20.9932 50.2686 19.9092 48.96C18.835 47.6416 17.2285 46.9824 15.0898 46.9824H12.9512L12.5996 44.1992H15.0898C21.4375 44.1992 24.6113 47.7637 24.6113 54.8926C24.6113 61.6309 21.4375 65 15.0898 65H12.8926ZM10.0508 65V44.1992H13.0977V65H10.0508ZM37.5605 65.1465L37.3555 60.5469L36.9453 59.2578V55.2441C36.9453 54.209 36.5791 53.4521 35.8467 52.9736C35.124 52.4854 34.0449 52.2217 32.6094 52.1826L28.8887 52.0801L29.1816 49.3262L32.3164 49.3701C34.8848 49.4092 36.7891 49.9658 38.0293 51.04C39.2793 52.1045 39.9043 53.6621 39.9043 55.7129V62.1875L42.541 62.5098V65L37.5605 65.1465ZM32.082 65.293C30.4609 65.293 29.2061 64.9023 28.3174 64.1211C27.4287 63.3398 26.9844 62.2363 26.9844 60.8105C26.9844 59.1699 27.5947 57.9102 28.8154 57.0312C30.0459 56.1523 31.7793 55.7129 34.0156 55.7129C34.9434 55.7129 35.7686 55.7715 36.4912 55.8887C37.2236 55.9961 37.873 56.1621 38.4395 56.3867L37.7949 58.4961C37.1406 58.3496 36.501 58.2666 35.876 58.2471C35.251 58.2178 34.6113 58.2031 33.957 58.2031C31.2617 58.2031 29.9141 59.0234 29.9141 60.6641C29.9141 61.3477 30.1436 61.875 30.6025 62.2461C31.0713 62.6172 31.7305 62.8027 32.5801 62.8027C33.5469 62.8027 34.3525 62.6367 34.9971 62.3047C35.6514 61.9727 36.1396 61.5479 36.4619 61.0303C36.7842 60.5127 36.9453 59.9805 36.9453 59.4336V57.7344L37.8535 61.7188H36.623L37.1211 61.25C37.1211 62.1484 36.9111 62.9004 36.4912 63.5059C36.0811 64.1016 35.5 64.5508 34.748 64.8535C33.9961 65.1465 33.1074 65.293 32.082 65.293ZM50.8906 58.3203L49.9824 53.457H51.1836C51.3594 50.6055 52.7852 49.1797 55.4609 49.1797C57.0625 49.1797 58.2246 49.6387 58.9473 50.5566C59.6699 51.4746 60.0312 52.959 60.0312 55.0098H56.9551C56.9551 53.877 56.7842 53.0615 56.4424 52.5635C56.1104 52.0654 55.5684 51.8164 54.8164 51.8164C53.498 51.8164 52.5117 52.3828 51.8574 53.5156C51.2129 54.6387 50.8906 56.2402 50.8906 58.3203ZM44.3281 65V62.2754H54.6992V65H44.3281ZM47.7852 65V49.4727H50.3047L50.8906 53.9258V65H47.7852ZM44.9141 52.1973V49.4727H50.0996L50.3926 52.1973H44.9141ZM65.2754 59.1113V56.3281H67.0332C68.3223 56.3281 69.3818 56.1084 70.2119 55.6689C71.042 55.2197 71.6914 54.4922 72.1602 53.4863C72.6387 52.4805 72.9902 51.1426 73.2148 49.4727H76.4375C76.0273 52.7051 75.1045 55.1221 73.6689 56.7236C72.2432 58.3154 70.2754 59.1113 67.7656 59.1113H65.2754ZM63.0781 65V43.0273H66.1836V65H63.0781ZM73.5957 65L69.1719 57.4414L72.1016 56.2402L77.4336 65H73.5957Z" fill="white"/>
<path d="M79.7773 67.7246V65H94.4258V67.7246H79.7773Z" fill="#D37E13"/>
<rect y="118" width="21.3333" height="10" fill="#692AB1"/>
<rect x="21.3333" y="118" width="21.3333" height="10" fill="#372051"/>
<rect x="42.6667" y="118" width="21.3333" height="10" fill="#2D1D3F"/>
<rect x="64" y="118" width="21.3333" height="10" fill="#1D1427"/>
<rect x="85.3333" y="118" width="21.3333" height="10" fill="#140E1B"/>
<rect x="106.667" y="118" width="21.3333" height="10" fill="#D37E13"/>
</svg>
